<svg id="visual" viewBox="0 0 960 250" width="960" height="250" xmlns="http://www.w3.org/2000/svg" xmlns:xlink="http://www.w3.org/1999/xlink" version="1.1"><path d="M0 188L13.3 180.2C26.7 172.3 53.3 156.7 80 165.3C106.7 174 133.3 207 160 221.2C186.7 235.3 213.3 230.7 240 217.8C266.7 205 293.3 184 320 170.2C346.7 156.3 373.3 149.7 400 161.5C426.7 173.3 453.3 203.7 480 219C506.7 234.3 533.3 234.7 560 235.7C586.7 236.7 613.3 238.3 640 235C666.7 231.7 693.3 223.3 720 208.2C746.7 193 773.3 171 800 163.8C826.7 156.7 853.3 164.3 880 164.2C906.7 164 933.3 156 946.7 152L960 148L960 0L946.7 0C933.3 0 906.7 0 880 0C853.3 0 826.7 0 800 0C773.3 0 746.7 0 720 0C693.3 0 666.7 0 640 0C613.3 0 586.7 0 560 0C533.3 0 506.7 0 480 0C453.3 0 426.7 0 400 0C373.3 0 346.7 0 320 0C293.3 0 266.7 0 240 0C213.3 0 186.7 0 160 0C133.3 0 106.7 0 80 0C53.3 0 26.7 0 13.3 0L0 0Z" fill="#44475a"></path><path d="M0 221L13.3 205.8C26.7 190.7 53.3 160.3 80 158.7C106.7 157 133.3 184 160 197.8C186.7 211.7 213.3 212.3 240 197.8C266.7 183.3 293.3 153.7 320 145C346.7 136.3 373.3 148.7 400 155.3C426.7 162 453.3 163 480 171.5C506.7 180 533.3 196 560 205.3C586.7 214.7 613.3 217.3 640 212.3C666.7 207.3 693.3 194.7 720 179.3C746.7 164 773.3 146 800 139.5C826.7 133 853.3 138 880 149.3C906.7 160.7 933.3 178.3 946.7 187.2L960 196L960 0L946.7 0C933.3 0 906.7 0 880 0C853.3 0 826.7 0 800 0C773.3 0 746.7 0 720 0C693.3 0 666.7 0 640 0C613.3 0 586.7 0 560 0C533.3 0 506.7 0 480 0C453.3 0 426.7 0 400 0C373.3 0 346.7 0 320 0C293.3 0 266.7 0 240 0C213.3 0 186.7 0 160 0C133.3 0 106.7 0 80 0C53.3 0 26.7 0 13.3 0L0 0Z" fill="#404355"></path><path d="M0 108L13.3 109.3C26.7 110.7 53.3 113.3 80 115.2C106.7 117 133.3 118 160 123.2C186.7 128.3 213.3 137.7 240 148.2C266.7 158.7 293.3 170.3 320 171.3C346.7 172.3 373.3 162.7 400 157.7C426.7 152.7 453.3 152.3 480 149.5C506.7 146.7 533.3 141.3 560 139.7C586.7 138 613.3 140 640 146.7C666.7 153.3 693.3 164.7 720 158.3C746.7 152 773.3 128 800 130.8C826.7 133.7 853.3 163.3 880 168.5C906.7 173.7 933.3 154.3 946.7 144.7L960 135L960 0L946.7 0C933.3 0 906.7 0 880 0C853.3 0 826.7 0 800 0C773.3 0 746.7 0 720 0C693.3 0 666.7 0 640 0C613.3 0 586.7 0 560 0C533.3 0 506.7 0 480 0C453.3 0 426.7 0 400 0C373.3 0 346.7 0 320 0C293.3 0 266.7 0 240 0C213.3 0 186.7 0 160 0C133.3 0 106.7 0 80 0C53.3 0 26.7 0 13.3 0L0 0Z" fill="#3c3e50"></path><path d="M0 107L13.3 108.7C26.7 110.3 53.3 113.7 80 111.2C106.7 108.7 133.3 100.3 160 107.3C186.7 114.3 213.3 136.7 240 148.3C266.7 160 293.3 161 320 150C346.7 139 373.3 116 400 105.5C426.7 95 453.3 97 480 97.3C506.7 97.7 533.3 96.3 560 101.2C586.7 106 613.3 117 640 124.8C666.7 132.7 693.3 137.3 720 134.3C746.7 131.3 773.3 120.7 800 124.5C826.7 128.3 853.3 146.7 880 151.3C906.7 156 933.3 147 946.7 142.5L960 138L960 0L946.7 0C933.3 0 906.7 0 880 0C853.3 0 826.7 0 800 0C773.3 0 746.7 0 720 0C693.3 0 666.7 0 640 0C613.3 0 586.7 0 560 0C533.3 0 506.7 0 480 0C453.3 0 426.7 0 400 0C373.3 0 346.7 0 320 0C293.3 0 266.7 0 240 0C213.3 0 186.7 0 160 0C133.3 0 106.7 0 80 0C53.3 0 26.7 0 13.3 0L0 0Z" fill="#383a4b"></path><path d="M0 137L13.3 128.5C26.7 120 53.3 103 80 90C106.7 77 133.3 68 160 70.7C186.7 73.3 213.3 87.7 240 89.2C266.7 90.7 293.3 79.3 320 78.3C346.7 77.3 373.3 86.7 400 86.8C426.7 87 453.3 78 480 78.7C506.7 79.3 533.3 89.7 560 97.5C586.7 105.3 613.3 110.7 640 108.3C666.7 106 693.3 96 720 91.8C746.7 87.7 773.3 89.3 800 88.2C826.7 87 853.3 83 880 77.7C906.7 72.3 933.3 65.7 946.7 62.3L960 59L960 0L946.7 0C933.3 0 906.7 0 880 0C853.3 0 826.7 0 800 0C773.3 0 746.7 0 720 0C693.3 0 666.7 0 640 0C613.3 0 586.7 0 560 0C533.3 0 506.7 0 480 0C453.3 0 426.7 0 400 0C373.3 0 346.7 0 320 0C293.3 0 266.7 0 240 0C213.3 0 186.7 0 160 0C133.3 0 106.7 0 80 0C53.3 0 26.7 0 13.3 0L0 0Z" fill="#343645"></path><path d="M0 48L13.3 54.3C26.7 60.7 53.3 73.3 80 78C106.7 82.7 133.3 79.3 160 79.3C186.7 79.3 213.3 82.7 240 88C266.7 93.3 293.3 100.7 320 97C346.7 93.3 373.3 78.7 400 71.7C426.7 64.7 453.3 65.3 480 62C506.7 58.7 533.3 51.3 560 51.2C586.7 51 613.3 58 640 63.7C666.7 69.3 693.3 73.7 720 77.8C746.7 82 773.3 86 800 84.5C826.7 83 853.3 76 880 72.7C906.7 69.3 933.3 69.7 946.7 69.8L960 70L960 0L946.7 0C933.3 0 906.7 0 880 0C853.3 0 826.7 0 800 0C773.3 0 746.7 0 720 0C693.3 0 666.7 0 640 0C613.3 0 586.7 0 560 0C533.3 0 506.7 0 480 0C453.3 0 426.7 0 400 0C373.3 0 346.7 0 320 0C293.3 0 266.7 0 240 0C213.3 0 186.7 0 160 0C133.3 0 106.7 0 80 0C53.3 0 26.7 0 13.3 0L0 0Z" fill="#303240"></path><path d="M0 21L13.3 22.8C26.7 24.7 53.3 28.3 80 38.5C106.7 48.7 133.3 65.3 160 66C186.7 66.7 213.3 51.3 240 50.2C266.7 49 293.3 62 320 66.7C346.7 71.3 373.3 67.7 400 61.3C426.7 55 453.3 46 480 45C506.7 44 533.3 51 560 55.5C586.7 60 613.3 62 640 56C666.7 50 693.3 36 720 33C746.7 30 773.3 38 800 42C826.7 46 853.3 46 880 42.2C906.7 38.3 933.3 30.7 946.7 26.8L960 23L960 0L946.7 0C933.3 0 906.7 0 880 0C853.3 0 826.7 0 800 0C773.3 0 746.7 0 720 0C693.3 0 666.7 0 640 0C613.3 0 586.7 0 560 0C533.3 0 506.7 0 480 0C453.3 0 426.7 0 400 0C373.3 0 346.7 0 320 0C293.3 0 266.7 0 240 0C213.3 0 186.7 0 160 0C133.3 0 106.7 0 80 0C53.3 0 26.7 0 13.3 0L0 0Z" fill="#2c2e3b"></path><path d="M0 9L13.3 12.2C26.7 15.3 53.3 21.7 80 27.2C106.7 32.7 133.3 37.3 160 36.8C186.7 36.3 213.3 30.7 240 24.5C266.7 18.3 293.3 11.7 320 9C346.7 6.3 373.3 7.7 400 7C426.7 6.3 453.3 3.7 480 6.3C506.7 9 533.3 17 560 25.7C586.7 34.3 613.3 43.7 640 44.5C666.7 45.3 693.3 37.7 720 29.8C746.7 22 773.3 14 800 14.8C826.7 15.7 853.3 25.3 880 25.5C906.7 25.7 933.3 16.3 946.7 11.7L960 7L960 0L946.7 0C933.3 0 906.7 0 880 0C853.3 0 826.7 0 800 0C773.3 0 746.7 0 720 0C693.3 0 666.7 0 640 0C613.3 0 586.7 0 560 0C533.3 0 506.7 0 480 0C453.3 0 426.7 0 400 0C373.3 0 346.7 0 320 0C293.3 0 266.7 0 240 0C213.3 0 186.7 0 160 0C133.3 0 106.7 0 80 0C53.3 0 26.7 0 13.3 0L0 0Z" fill="#282a36"></path></svg>