<svg id="visual" viewBox="0 0 960 200" width="960" height="200" xmlns="http://www.w3.org/2000/svg" xmlns:xlink="http://www.w3.org/1999/xlink" version="1.1"><rect x="0" y="0" width="960" height="200" fill="#282a36"></rect><path d="M0 85L11.5 93.5C23 102 46 119 68.8 132.3C91.7 145.7 114.3 155.3 137.2 154.3C160 153.3 183 141.7 205.8 142.3C228.7 143 251.3 156 274.2 155.5C297 155 320 141 342.8 133.8C365.7 126.7 388.3 126.3 411.2 128.2C434 130 457 134 480 126.3C503 118.7 526 99.3 548.8 90.5C571.7 81.7 594.3 83.3 617.2 94.5C640 105.7 663 126.3 685.8 134.8C708.7 143.3 731.3 139.7 754.2 141.8C777 144 800 152 822.8 148.2C845.7 144.3 868.3 128.7 891.2 127.7C914 126.7 937 140.3 948.5 147.2L960 154L960 0L948.5 0C937 0 914 0 891.2 0C868.3 0 845.7 0 822.8 0C800 0 777 0 754.2 0C731.3 0 708.7 0 685.8 0C663 0 640 0 617.2 0C594.3 0 571.7 0 548.8 0C526 0 503 0 480 0C457 0 434 0 411.2 0C388.3 0 365.7 0 342.8 0C320 0 297 0 274.2 0C251.3 0 228.7 0 205.8 0C183 0 160 0 137.2 0C114.3 0 91.7 0 68.8 0C46 0 23 0 11.5 0L0 0Z" fill="#282a36"></path><path d="M0 100L11.5 103.3C23 106.7 46 113.3 68.8 116.5C91.7 119.7 114.3 119.3 137.2 118.2C160 117 183 115 205.8 114.5C228.7 114 251.3 115 274.2 116.5C297 118 320 120 342.8 115.3C365.7 110.7 388.3 99.3 411.2 99.5C434 99.7 457 111.3 480 122C503 132.7 526 142.3 548.8 143C571.7 143.7 594.3 135.3 617.2 129.5C640 123.7 663 120.3 685.8 112.2C708.7 104 731.3 91 754.2 84.3C777 77.7 800 77.3 822.8 83.5C845.7 89.7 868.3 102.3 891.2 104.8C914 107.3 937 99.7 948.5 95.8L960 92L960 0L948.5 0C937 0 914 0 891.2 0C868.3 0 845.7 0 822.8 0C800 0 777 0 754.2 0C731.3 0 708.7 0 685.8 0C663 0 640 0 617.2 0C594.3 0 571.7 0 548.8 0C526 0 503 0 480 0C457 0 434 0 411.2 0C388.3 0 365.7 0 342.8 0C320 0 297 0 274.2 0C251.3 0 228.7 0 205.8 0C183 0 160 0 137.2 0C114.3 0 91.7 0 68.8 0C46 0 23 0 11.5 0L0 0Z" fill="#2d303d"></path><path d="M0 96L11.5 101C23 106 46 116 68.8 115.5C91.7 115 114.3 104 137.2 94.8C160 85.7 183 78.3 205.8 81.8C228.7 85.3 251.3 99.7 274.2 98.7C297 97.7 320 81.3 342.8 72C365.7 62.7 388.3 60.3 411.2 65.3C434 70.3 457 82.7 480 90.3C503 98 526 101 548.8 104.3C571.7 107.7 594.3 111.3 617.2 110.5C640 109.7 663 104.3 685.8 96.7C708.7 89 731.3 79 754.2 71.7C777 64.3 800 59.7 822.8 64.5C845.7 69.3 868.3 83.7 891.2 88.5C914 93.3 937 88.7 948.5 86.3L960 84L960 0L948.5 0C937 0 914 0 891.2 0C868.3 0 845.7 0 822.8 0C800 0 777 0 754.2 0C731.3 0 708.7 0 685.8 0C663 0 640 0 617.2 0C594.3 0 571.7 0 548.8 0C526 0 503 0 480 0C457 0 434 0 411.2 0C388.3 0 365.7 0 342.8 0C320 0 297 0 274.2 0C251.3 0 228.7 0 205.8 0C183 0 160 0 137.2 0C114.3 0 91.7 0 68.8 0C46 0 23 0 11.5 0L0 0Z" fill="#333544"></path><path d="M0 79L11.5 79C23 79 46 79 68.8 72.2C91.7 65.3 114.3 51.7 137.2 54C160 56.3 183 74.7 205.8 81.7C228.7 88.7 251.3 84.3 274.2 81.2C297 78 320 76 342.8 74.8C365.7 73.7 388.3 73.3 411.2 71.2C434 69 457 65 480 60C503 55 526 49 548.8 45.8C571.7 42.7 594.3 42.3 617.2 50.7C640 59 663 76 685.8 81C708.7 86 731.3 79 754.2 72.7C777 66.3 800 60.7 822.8 58.8C845.7 57 868.3 59 891.2 57.8C914 56.7 937 52.3 948.5 50.2L960 48L960 0L948.5 0C937 0 914 0 891.2 0C868.3 0 845.7 0 822.8 0C800 0 777 0 754.2 0C731.3 0 708.7 0 685.8 0C663 0 640 0 617.2 0C594.3 0 571.7 0 548.8 0C526 0 503 0 480 0C457 0 434 0 411.2 0C388.3 0 365.7 0 342.8 0C320 0 297 0 274.2 0C251.3 0 228.7 0 205.8 0C183 0 160 0 137.2 0C114.3 0 91.7 0 68.8 0C46 0 23 0 11.5 0L0 0Z" fill="#393b4c"></path><path d="M0 48L11.5 46.8C23 45.7 46 43.3 68.8 39.5C91.7 35.7 114.3 30.3 137.2 28.3C160 26.3 183 27.7 205.8 34.7C228.7 41.7 251.3 54.3 274.2 60.8C297 67.3 320 67.7 342.8 68.8C365.7 70 388.3 72 411.2 65.7C434 59.3 457 44.7 480 34.8C503 25 526 20 548.8 18.8C571.7 17.7 594.3 20.3 617.2 26C640 31.7 663 40.3 685.8 44.5C708.7 48.7 731.3 48.3 754.2 50C777 51.7 800 55.3 822.8 55.3C845.7 55.3 868.3 51.7 891.2 53.2C914 54.7 937 61.3 948.5 64.7L960 68L960 0L948.5 0C937 0 914 0 891.2 0C868.3 0 845.7 0 822.8 0C800 0 777 0 754.2 0C731.3 0 708.7 0 685.8 0C663 0 640 0 617.2 0C594.3 0 571.7 0 548.8 0C526 0 503 0 480 0C457 0 434 0 411.2 0C388.3 0 365.7 0 342.8 0C320 0 297 0 274.2 0C251.3 0 228.7 0 205.8 0C183 0 160 0 137.2 0C114.3 0 91.7 0 68.8 0C46 0 23 0 11.5 0L0 0Z" fill="#3e4153"></path><path d="M0 25L11.5 22.8C23 20.7 46 16.3 68.8 15.2C91.7 14 114.3 16 137.2 20.3C160 24.7 183 31.3 205.8 28.7C228.7 26 251.3 14 274.2 14.5C297 15 320 28 342.8 30.7C365.7 33.3 388.3 25.7 411.2 20.5C434 15.3 457 12.7 480 15.2C503 17.7 526 25.3 548.8 31.5C571.7 37.7 594.3 42.3 617.2 40.2C640 38 663 29 685.8 25C708.7 21 731.3 22 754.2 25C777 28 800 33 822.8 36.8C845.7 40.7 868.3 43.3 891.2 38.3C914 33.3 937 20.7 948.5 14.3L960 8L960 0L948.5 0C937 0 914 0 891.2 0C868.3 0 845.7 0 822.8 0C800 0 777 0 754.2 0C731.3 0 708.7 0 685.8 0C663 0 640 0 617.2 0C594.3 0 571.7 0 548.8 0C526 0 503 0 480 0C457 0 434 0 411.2 0C388.3 0 365.7 0 342.8 0C320 0 297 0 274.2 0C251.3 0 228.7 0 205.8 0C183 0 160 0 137.2 0C114.3 0 91.7 0 68.8 0C46 0 23 0 11.5 0L0 0Z" fill="#44475a"></path></svg>