<svg id="visual" viewBox="0 0 960 250" width="960" height="250" xmlns="http://www.w3.org/2000/svg" xmlns:xlink="http://www.w3.org/1999/xlink" version="1.1"><rect x="0" y="0" width="960" height="250" fill="#282a36"></rect><path d="M0 200L11.5 200.5C23 201 46 202 68.8 203.8C91.7 205.7 114.3 208.3 137.2 203.2C160 198 183 185 205.8 184.2C228.7 183.3 251.3 194.7 274.2 203.2C297 211.7 320 217.3 342.8 207.3C365.7 197.3 388.3 171.7 411.2 158.7C434 145.7 457 145.3 480 146.8C503 148.3 526 151.7 548.8 166.3C571.7 181 594.3 207 617.2 212.5C640 218 663 203 685.8 194.8C708.7 186.7 731.3 185.3 754.2 185.5C777 185.7 800 187.3 822.8 186.8C845.7 186.3 868.3 183.7 891.2 182.7C914 181.7 937 182.3 948.5 182.7L960 183L960 0L948.5 0C937 0 914 0 891.2 0C868.3 0 845.7 0 822.8 0C800 0 777 0 754.2 0C731.3 0 708.7 0 685.8 0C663 0 640 0 617.2 0C594.3 0 571.7 0 548.8 0C526 0 503 0 480 0C457 0 434 0 411.2 0C388.3 0 365.7 0 342.8 0C320 0 297 0 274.2 0C251.3 0 228.7 0 205.8 0C183 0 160 0 137.2 0C114.3 0 91.7 0 68.8 0C46 0 23 0 11.5 0L0 0Z" fill="#282a36"></path><path d="M0 207L11.5 202.5C23 198 46 189 68.8 181.3C91.7 173.7 114.3 167.3 137.2 164.8C160 162.3 183 163.7 205.8 163.7C228.7 163.7 251.3 162.3 274.2 167.2C297 172 320 183 342.8 187C365.7 191 388.3 188 411.2 185.2C434 182.3 457 179.7 480 173.5C503 167.3 526 157.7 548.8 152.7C571.7 147.7 594.3 147.3 617.2 154.3C640 161.3 663 175.7 685.8 174.2C708.7 172.7 731.3 155.3 754.2 144.5C777 133.7 800 129.3 822.8 130.7C845.7 132 868.3 139 891.2 146.3C914 153.7 937 161.3 948.5 165.2L960 169L960 0L948.5 0C937 0 914 0 891.2 0C868.3 0 845.7 0 822.8 0C800 0 777 0 754.2 0C731.3 0 708.7 0 685.8 0C663 0 640 0 617.2 0C594.3 0 571.7 0 548.8 0C526 0 503 0 480 0C457 0 434 0 411.2 0C388.3 0 365.7 0 342.8 0C320 0 297 0 274.2 0C251.3 0 228.7 0 205.8 0C183 0 160 0 137.2 0C114.3 0 91.7 0 68.8 0C46 0 23 0 11.5 0L0 0Z" fill="#2d2f3c"></path><path d="M0 109L11.5 120.2C23 131.3 46 153.7 68.8 158C91.7 162.3 114.3 148.7 137.2 143.3C160 138 183 141 205.8 139.2C228.7 137.3 251.3 130.7 274.2 125.5C297 120.3 320 116.7 342.8 114.2C365.7 111.7 388.3 110.3 411.2 114.5C434 118.7 457 128.3 480 129.7C503 131 526 124 548.8 125C571.7 126 594.3 135 617.2 143.7C640 152.3 663 160.7 685.8 163C708.7 165.3 731.3 161.7 754.2 152.2C777 142.7 800 127.3 822.8 118.8C845.7 110.3 868.3 108.7 891.2 117.8C914 127 937 147 948.5 157L960 167L960 0L948.5 0C937 0 914 0 891.2 0C868.3 0 845.7 0 822.8 0C800 0 777 0 754.2 0C731.3 0 708.7 0 685.8 0C663 0 640 0 617.2 0C594.3 0 571.7 0 548.8 0C526 0 503 0 480 0C457 0 434 0 411.2 0C388.3 0 365.7 0 342.8 0C320 0 297 0 274.2 0C251.3 0 228.7 0 205.8 0C183 0 160 0 137.2 0C114.3 0 91.7 0 68.8 0C46 0 23 0 11.5 0L0 0Z" fill="#313342"></path><path d="M0 107L11.5 102.3C23 97.7 46 88.3 68.8 87.5C91.7 86.7 114.3 94.3 137.2 98C160 101.7 183 101.3 205.8 106.8C228.7 112.3 251.3 123.7 274.2 130.3C297 137 320 139 342.8 131.7C365.7 124.3 388.3 107.7 411.2 104C434 100.3 457 109.7 480 110.8C503 112 526 105 548.8 102.3C571.7 99.7 594.3 101.3 617.2 101.5C640 101.7 663 100.3 685.8 105.5C708.7 110.7 731.3 122.3 754.2 125.7C777 129 800 124 822.8 121.5C845.7 119 868.3 119 891.2 119.5C914 120 937 121 948.5 121.5L960 122L960 0L948.5 0C937 0 914 0 891.2 0C868.3 0 845.7 0 822.8 0C800 0 777 0 754.2 0C731.3 0 708.7 0 685.8 0C663 0 640 0 617.2 0C594.3 0 571.7 0 548.8 0C526 0 503 0 480 0C457 0 434 0 411.2 0C388.3 0 365.7 0 342.8 0C320 0 297 0 274.2 0C251.3 0 228.7 0 205.8 0C183 0 160 0 137.2 0C114.3 0 91.7 0 68.8 0C46 0 23 0 11.5 0L0 0Z" fill="#363848"></path><path d="M0 53L11.5 61.3C23 69.7 46 86.3 68.8 92.3C91.7 98.3 114.3 93.7 137.2 86.2C160 78.7 183 68.3 205.8 70.3C228.7 72.3 251.3 86.7 274.2 90.2C297 93.7 320 86.3 342.8 83.2C365.7 80 388.3 81 411.2 80.3C434 79.7 457 77.3 480 75.7C503 74 526 73 548.8 77.3C571.7 81.7 594.3 91.3 617.2 98.5C640 105.7 663 110.3 685.8 109.5C708.7 108.7 731.3 102.3 754.2 99.7C777 97 800 98 822.8 100C845.7 102 868.3 105 891.2 101C914 97 937 86 948.5 80.5L960 75L960 0L948.5 0C937 0 914 0 891.2 0C868.3 0 845.7 0 822.8 0C800 0 777 0 754.2 0C731.3 0 708.7 0 685.8 0C663 0 640 0 617.2 0C594.3 0 571.7 0 548.8 0C526 0 503 0 480 0C457 0 434 0 411.2 0C388.3 0 365.7 0 342.8 0C320 0 297 0 274.2 0C251.3 0 228.7 0 205.8 0C183 0 160 0 137.2 0C114.3 0 91.7 0 68.8 0C46 0 23 0 11.5 0L0 0Z" fill="#3b3d4e"></path><path d="M0 42L11.5 48.3C23 54.7 46 67.3 68.8 69.3C91.7 71.3 114.3 62.7 137.2 57.2C160 51.7 183 49.3 205.8 48C228.7 46.7 251.3 46.3 274.2 51.7C297 57 320 68 342.8 67.3C365.7 66.7 388.3 54.3 411.2 53.2C434 52 457 62 480 64.5C503 67 526 62 548.8 60.5C571.7 59 594.3 61 617.2 58.7C640 56.3 663 49.7 685.8 46.2C708.7 42.7 731.3 42.3 754.2 49.3C777 56.3 800 70.7 822.8 77.2C845.7 83.7 868.3 82.3 891.2 77.5C914 72.7 937 64.3 948.5 60.2L960 56L960 0L948.5 0C937 0 914 0 891.2 0C868.3 0 845.7 0 822.8 0C800 0 777 0 754.2 0C731.3 0 708.7 0 685.8 0C663 0 640 0 617.2 0C594.3 0 571.7 0 548.8 0C526 0 503 0 480 0C457 0 434 0 411.2 0C388.3 0 365.7 0 342.8 0C320 0 297 0 274.2 0C251.3 0 228.7 0 205.8 0C183 0 160 0 137.2 0C114.3 0 91.7 0 68.8 0C46 0 23 0 11.5 0L0 0Z" fill="#3f4254"></path><path d="M0 41L11.5 35.5C23 30 46 19 68.8 18C91.7 17 114.3 26 137.2 28.7C160 31.3 183 27.7 205.8 29.8C228.7 32 251.3 40 274.2 37C297 34 320 20 342.8 15C365.7 10 388.3 14 411.2 21C434 28 457 38 480 43.8C503 49.7 526 51.3 548.8 51.3C571.7 51.3 594.3 49.7 617.2 43C640 36.3 663 24.7 685.8 19.7C708.7 14.7 731.3 16.3 754.2 17.3C777 18.3 800 18.7 822.8 17.2C845.7 15.7 868.3 12.3 891.2 10.5C914 8.7 937 8.3 948.5 8.2L960 8L960 0L948.5 0C937 0 914 0 891.2 0C868.3 0 845.7 0 822.8 0C800 0 777 0 754.2 0C731.3 0 708.7 0 685.8 0C663 0 640 0 617.2 0C594.3 0 571.7 0 548.8 0C526 0 503 0 480 0C457 0 434 0 411.2 0C388.3 0 365.7 0 342.8 0C320 0 297 0 274.2 0C251.3 0 228.7 0 205.8 0C183 0 160 0 137.2 0C114.3 0 91.7 0 68.8 0C46 0 23 0 11.5 0L0 0Z" fill="#44475a"></path></svg>