<svg id="visual" viewBox="0 0 900 900" width="900" height="900" xmlns="http://www.w3.org/2000/svg" xmlns:xlink="http://www.w3.org/1999/xlink" version="1.1"><rect width="900" height="900" fill="#282a36"></rect><g><g transform="translate(154 506)"><path d="M8.4 -5C9.6 -2.8 8.5 0.7 6.7 3.9C4.9 7 2.4 9.8 -0.6 10.1C-3.5 10.5 -7.1 8.3 -8.5 5.4C-9.9 2.5 -9.2 -1.2 -7.4 -3.8C-5.6 -6.3 -2.8 -7.7 0.4 -7.9C3.6 -8.2 7.2 -7.2 8.4 -5Z" fill="#333645"></path></g><g transform="translate(278 358)"><path d="M9.4 -5.3C10.7 -3.2 9.2 0.7 7.2 3.7C5.2 6.7 2.6 8.8 -0.8 9.2C-4.1 9.7 -8.3 8.4 -9.5 5.9C-10.7 3.4 -9 -0.4 -6.9 -3C-4.8 -5.5 -2.4 -6.9 0.8 -7.4C4 -7.9 8.1 -7.4 9.4 -5.3Z" fill="#333645"></path></g><g transform="translate(668 788)"><path d="M8 -3.8C9.7 -1.7 9.9 2.1 8.4 4.1C6.8 6.1 3.4 6.3 0.6 6C-2.2 5.6 -4.5 4.8 -5.9 2.8C-7.4 0.9 -8.1 -2.1 -7 -3.9C-5.8 -5.6 -2.9 -6.2 0.1 -6.3C3.2 -6.3 6.3 -5.9 8 -3.8Z" fill="#333645"></path></g><g transform="translate(866 616)"><path d="M3.8 -2.1C4.9 -0.2 5.9 1.8 5.2 3.1C4.5 4.4 2.3 5 0 5C-2.2 4.9 -4.3 4.3 -5.3 2.9C-6.2 1.4 -5.9 -0.9 -4.8 -2.7C-3.7 -4.6 -1.8 -6 -0.3 -5.8C1.3 -5.7 2.7 -4 3.8 -2.1Z" fill="#333645"></path></g><g transform="translate(536 328)"><path d="M5 -2.8C6.5 -0.4 7.6 2.3 6.8 4.8C5.9 7.2 2.9 9.4 0.4 9.2C-2 8.9 -4.1 6.2 -5.5 3.5C-6.9 0.7 -7.7 -2.1 -6.7 -4.3C-5.6 -6.5 -2.8 -8.1 -0.5 -7.8C1.8 -7.5 3.6 -5.3 5 -2.8Z" fill="#333645"></path></g><g transform="translate(222 28)"><path d="M5.8 -3C7.2 -0.9 7.9 2 6.8 4.6C5.7 7.2 2.8 9.4 0 9.4C-2.7 9.4 -5.5 7.1 -6.6 4.5C-7.7 1.9 -7.2 -1 -5.8 -3.1C-4.4 -5.2 -2.2 -6.5 0 -6.5C2.2 -6.5 4.4 -5.1 5.8 -3Z" fill="#333645"></path></g><g transform="translate(496 744)"><path d="M8.2 -4.7C9.7 -2.1 9.4 1.6 7.8 3.7C6.1 5.9 3 6.5 -0.1 6.6C-3.3 6.7 -6.6 6.2 -7.6 4.4C-8.7 2.5 -7.6 -0.6 -5.9 -3.2C-4.3 -5.9 -2.1 -8 0.6 -8.4C3.3 -8.7 6.7 -7.2 8.2 -4.7Z" fill="#333645"></path></g><g transform="translate(348 348)"><path d="M4.4 -2.7C5.1 -1.3 4.7 0.6 3.8 2.4C2.9 4.1 1.4 5.8 -0.3 5.9C-2 6.1 -4 4.7 -5 2.9C-6.1 1 -6.3 -1.4 -5.4 -3C-4.4 -4.6 -2.2 -5.4 -0.2 -5.3C1.8 -5.2 3.7 -4.2 4.4 -2.7Z" fill="#333645"></path></g><g transform="translate(588 41)"><path d="M5.5 -2.4C7.2 -0.2 8.7 2.8 7.7 4.6C6.8 6.4 3.4 6.9 0.3 6.8C-2.7 6.6 -5.5 5.7 -6.6 3.8C-7.7 1.9 -7.2 -1 -5.8 -3C-4.4 -5 -2.2 -6.3 -0.2 -6.2C1.9 -6.1 3.8 -4.7 5.5 -2.4Z" fill="#333645"></path></g><g transform="translate(130 577)"><path d="M6.2 -3.4C7.4 -1.5 7.4 1.4 6.1 2.9C4.9 4.5 2.4 4.7 0 4.7C-2.4 4.6 -4.8 4.4 -6 2.8C-7.3 1.3 -7.4 -1.5 -6.2 -3.5C-5 -5.4 -2.5 -6.4 0 -6.4C2.5 -6.4 5 -5.4 6.2 -3.4Z" fill="#333645"></path></g><g transform="translate(105 121)"><path d="M9.6 -5.5C10.8 -3.5 8.9 0.3 6.8 3.7C4.7 7 2.4 10 -0.9 10.5C-4.1 11.1 -8.3 9.1 -10.1 5.9C-12 2.7 -11.5 -1.9 -9.4 -4.3C-7.4 -6.8 -3.7 -7.1 0.3 -7.3C4.2 -7.5 8.5 -7.4 9.6 -5.5Z" fill="#333645"></path></g><g transform="translate(298 728)"><path d="M4.5 -2.7C5.8 -0.3 6.9 2.2 6.1 3.6C5.3 5 2.7 5.3 0.2 5.2C-2.4 5.1 -4.7 4.6 -5.9 3C-7 1.4 -6.9 -1.2 -5.7 -3.5C-4.5 -5.8 -2.3 -7.8 -0.3 -7.6C1.6 -7.4 3.2 -5.1 4.5 -2.7Z" fill="#333645"></path></g><g transform="translate(876 445)"><path d="M6.3 -2.9C8.2 -0.3 10 3.2 8.9 5.2C7.8 7.2 3.9 7.7 0.4 7.5C-3.2 7.3 -6.4 6.4 -8.4 3.9C-10.3 1.4 -11.1 -2.7 -9.5 -5.2C-7.9 -7.7 -4 -8.6 -0.9 -8C2.2 -7.5 4.3 -5.6 6.3 -2.9Z" fill="#333645"></path></g><g transform="translate(545 565)"><path d="M6.4 -3.8C7.2 -2.2 6.3 0.4 4.9 2.5C3.5 4.5 1.8 5.9 -0.2 6.1C-2.2 6.2 -4.4 5 -5.2 3.3C-5.9 1.7 -5.2 -0.5 -4.1 -2.2C-3 -4 -1.5 -5.4 0.6 -5.7C2.7 -6.1 5.5 -5.4 6.4 -3.8Z" fill="#333645"></path></g><g transform="translate(203 738)"><path d="M5.3 -4C6.4 -1.3 6.3 1.2 5.2 3C4.2 4.9 2.1 6.2 -0.6 6.5C-3.4 6.9 -6.7 6.4 -8.5 4.1C-10.2 1.9 -10.3 -2.1 -8.7 -5.2C-7 -8.3 -3.5 -10.5 -0.7 -10.1C2.1 -9.7 4.3 -6.7 5.3 -4Z" fill="#333645"></path></g><g transform="translate(536 817)"><path d="M7.7 -4C9.5 -1.5 9.9 2.2 8.3 4.7C6.8 7.3 3.4 8.6 0.5 8.3C-2.5 8.1 -4.9 6.2 -6.1 3.9C-7.2 1.6 -6.9 -1.1 -5.7 -3.3C-4.5 -5.5 -2.2 -7.1 0.4 -7.4C3 -7.6 6 -6.4 7.7 -4Z" fill="#333645"></path></g><g transform="translate(758 577)"><path d="M6.9 -4C8.1 -1.9 7.7 1.2 6.2 3.9C4.8 6.7 2.4 9.3 0.2 9.2C-2.1 9.1 -4.2 6.3 -5.3 3.7C-6.5 1.1 -6.7 -1.5 -5.7 -3.5C-4.6 -5.6 -2.3 -7.2 0.3 -7.3C2.8 -7.5 5.7 -6.2 6.9 -4Z" fill="#333645"></path></g><g transform="translate(183 641)"><path d="M6.4 -4.1C7.7 -1.5 7.6 1.5 6.4 4.2C5.1 6.8 2.5 9.3 -0.2 9.4C-3 9.6 -6 7.4 -7.5 4.6C-8.9 1.8 -8.8 -1.6 -7.3 -4.4C-5.8 -7.2 -2.9 -9.4 -0.2 -9.3C2.6 -9.2 5.1 -6.8 6.4 -4.1Z" fill="#333645"></path></g><g transform="translate(296 26)"><path d="M4 -2.2C5 -0.6 5.5 1.4 4.7 3.4C3.9 5.4 2 7.3 -0.4 7.5C-2.7 7.8 -5.5 6.2 -6.7 4C-7.8 1.8 -7.4 -1.1 -6.1 -3C-4.7 -4.8 -2.4 -5.5 -0.4 -5.3C1.5 -5 3 -3.8 4 -2.2Z" fill="#333645"></path></g><g transform="translate(875 129)"><path d="M5.4 -3C6.4 -1.3 6.3 1.2 5.3 2.8C4.2 4.4 2.1 5.1 0.1 5.1C-2 5 -4 4.2 -5 2.6C-6.1 1 -6.3 -1.4 -5.3 -3.1C-4.3 -4.8 -2.2 -5.9 0 -5.9C2.2 -5.8 4.3 -4.8 5.4 -3Z" fill="#333645"></path></g><g transform="translate(637 738)"><path d="M8.2 -4.7C10.2 -1.2 11.1 2.9 9.6 5.1C8.1 7.4 4 7.8 0.7 7.4C-2.6 6.9 -5.1 5.7 -6.7 3.4C-8.3 1.1 -9 -2.2 -7.7 -5.3C-6.4 -8.4 -3.2 -11.2 -0.1 -11.1C3.1 -11.1 6.2 -8.2 8.2 -4.7Z" fill="#333645"></path></g><g transform="translate(101 707)"><path d="M3.9 -2.4C4.8 -0.6 5.2 1.4 4.5 2.6C3.8 3.8 1.9 4.3 0.3 4.1C-1.3 3.9 -2.5 3 -3.3 1.8C-4.1 0.5 -4.5 -1.2 -3.9 -2.8C-3.3 -4.4 -1.6 -5.9 -0.1 -5.8C1.5 -5.8 2.9 -4.2 3.9 -2.4Z" fill="#333645"></path></g><g transform="translate(71 425)"><path d="M4.5 -3C5.4 -1.1 5.2 0.9 4.3 3.1C3.4 5.3 1.7 7.6 -0.5 7.9C-2.8 8.2 -5.6 6.5 -6.7 4.3C-7.7 2 -7.1 -0.9 -5.7 -3.1C-4.3 -5.3 -2.1 -6.9 -0.2 -6.8C1.8 -6.7 3.7 -5 4.5 -3Z" fill="#333645"></path></g><g transform="translate(773 325)"><path d="M8.6 -4.4C10.5 -1.6 11 2.5 9.3 5.6C7.7 8.6 3.8 10.6 0.2 10.5C-3.4 10.3 -6.7 8.1 -8.5 5C-10.2 1.9 -10.3 -2.1 -8.7 -4.8C-7 -7.5 -3.5 -8.9 -0.1 -8.8C3.3 -8.8 6.6 -7.3 8.6 -4.4Z" fill="#333645"></path></g><g transform="translate(191 282)"><path d="M4 -2.8C5 -0.6 5.5 1.4 4.8 3C4 4.5 2 5.6 0.2 5.5C-1.6 5.4 -3.3 4.1 -4.3 2.4C-5.4 0.7 -5.8 -1.5 -5 -3.6C-4.2 -5.7 -2.1 -7.8 -0.3 -7.6C1.5 -7.5 3 -5.1 4 -2.8Z" fill="#333645"></path></g><g transform="translate(53 147)"><path d="M10 -5.4C11.5 -3.2 10.1 1 8 4.5C5.9 8.1 2.9 11 -0.6 11.4C-4.1 11.7 -8.2 9.4 -10 6C-11.8 2.6 -11.4 -1.9 -9.4 -4.4C-7.4 -6.9 -3.7 -7.5 0.3 -7.7C4.3 -7.9 8.5 -7.6 10 -5.4Z" fill="#333645"></path></g><g transform="translate(702 810)"><path d="M5.3 -3.1C6.2 -1.4 6 0.9 4.9 2.8C3.8 4.6 1.9 5.9 -0.2 6.1C-2.3 6.2 -4.7 5.1 -5.8 3.3C-6.9 1.4 -6.7 -1.2 -5.6 -3C-4.4 -4.9 -2.2 -5.9 0 -5.9C2.2 -5.9 4.3 -4.8 5.3 -3.1Z" fill="#333645"></path></g><g transform="translate(600 748)"><path d="M6 -2.9C7.2 -1.3 7.3 1.5 6.2 3C5 4.5 2.5 4.6 0 4.6C-2.5 4.6 -5 4.5 -6.2 2.9C-7.5 1.4 -7.5 -1.5 -6.3 -3.1C-5.1 -4.7 -2.5 -5.1 -0.1 -5.1C2.4 -5 4.8 -4.6 6 -2.9Z" fill="#333645"></path></g><g transform="translate(688 704)"><path d="M4.9 -3.3C5.6 -1.7 4.8 0.3 3.7 2.3C2.6 4.4 1.3 6.5 -0.4 6.8C-2.1 7 -4.3 5.3 -5.2 3.4C-6.1 1.4 -5.8 -0.9 -4.7 -2.7C-3.7 -4.6 -1.8 -6 0.2 -6.1C2.1 -6.2 4.3 -4.9 4.9 -3.3Z" fill="#333645"></path></g><g transform="translate(425 176)"><path d="M7.9 -4.3C9.2 -2.3 8.5 1.1 6.8 3.8C5.2 6.5 2.6 8.4 -0.1 8.5C-2.8 8.5 -5.6 6.7 -6.8 4.3C-8 1.8 -7.6 -1.2 -6.2 -3.2C-4.8 -5.2 -2.4 -6.2 0.5 -6.5C3.3 -6.8 6.6 -6.2 7.9 -4.3Z" fill="#333645"></path></g><g transform="translate(276 121)"><path d="M6.5 -4.1C7.3 -2.2 6.3 0.4 4.9 2.9C3.5 5.3 1.7 7.6 -0.3 7.8C-2.3 7.9 -4.6 6 -5.7 3.7C-6.8 1.5 -6.5 -1.1 -5.4 -3.2C-4.2 -5.3 -2.1 -6.9 0.3 -7.1C2.8 -7.3 5.6 -6.1 6.5 -4.1Z" fill="#333645"></path></g><g transform="translate(471 378)"><path d="M9.5 -4.8C11.4 -2.2 11.4 2.2 9.5 5.6C7.6 9 3.8 11.4 0.6 11C-2.7 10.7 -5.3 7.6 -6.5 4.7C-7.7 1.7 -7.4 -1.2 -6.1 -3.5C-4.8 -5.8 -2.4 -7.5 0.7 -7.9C3.8 -8.3 7.6 -7.5 9.5 -4.8Z" fill="#333645"></path></g><g transform="translate(847 266)"><path d="M4.8 -2.7C5.8 -0.9 6.1 1.4 5.2 2.9C4.2 4.4 2.1 5.1 -0.1 5.2C-2.3 5.2 -4.6 4.6 -5.3 3.2C-6.1 1.7 -5.3 -0.4 -4.2 -2.3C-3.1 -4.1 -1.5 -5.6 0.2 -5.6C1.9 -5.7 3.7 -4.5 4.8 -2.7Z" fill="#333645"></path></g><g transform="translate(478 492)"><path d="M6.9 -3.7C8.4 -1.5 8.5 1.7 7.1 4.2C5.8 6.6 2.9 8.2 0.5 8C-1.9 7.7 -3.9 5.5 -4.9 3.3C-5.9 1.1 -5.9 -1.2 -5 -3.1C-4 -5 -2 -6.6 0.4 -6.8C2.8 -7 5.5 -5.9 6.9 -3.7Z" fill="#333645"></path></g><g transform="translate(424 571)"><path d="M7.6 -4.7C8.9 -2 8.6 1.3 7 4.5C5.4 7.7 2.7 10.7 -0.5 11C-3.7 11.3 -7.5 8.9 -9.6 5.4C-11.7 1.9 -12.1 -2.7 -10.2 -5.7C-8.4 -8.7 -4.2 -10.2 -0.5 -9.8C3.1 -9.5 6.2 -7.5 7.6 -4.7Z" fill="#333645"></path></g><g transform="translate(137 774)"><path d="M5.1 -2.7C6.3 -0.8 6.9 1.7 5.9 3.7C5 5.6 2.5 6.9 -0.2 7C-2.8 7.1 -5.6 6 -6.7 4C-7.7 2.1 -7 -0.8 -5.5 -2.8C-4.1 -4.8 -2.1 -6 -0.1 -5.9C1.9 -5.9 3.9 -4.6 5.1 -2.7Z" fill="#333645"></path></g><g transform="translate(343 611)"><path d="M6.2 -3.2C7.3 -1.6 7.1 1.2 5.8 2.8C4.6 4.3 2.3 4.7 0.3 4.5C-1.6 4.3 -3.3 3.6 -4 2.3C-4.8 1 -4.7 -0.8 -3.8 -2.3C-3 -3.8 -1.5 -4.9 0.5 -5.2C2.5 -5.5 5 -4.9 6.2 -3.2Z" fill="#333645"></path></g><g transform="translate(439 872)"><path d="M5.6 -2.3C7.2 -0.3 8.7 2.8 7.7 5.2C6.7 7.7 3.4 9.5 0.8 9.1C-1.8 8.6 -3.7 5.9 -4.8 3.4C-5.9 0.8 -6.3 -1.5 -5.4 -3.1C-4.5 -4.7 -2.2 -5.5 -0.1 -5.4C1.9 -5.3 3.9 -4.4 5.6 -2.3Z" fill="#333645"></path></g><g transform="translate(538 136)"><path d="M4 -2.4C5.1 -0.4 5.9 1.7 5.2 3.4C4.5 5 2.2 6.1 0 6.2C-2.3 6.2 -4.5 5 -5.3 3.4C-6.1 1.7 -5.4 -0.5 -4.3 -2.5C-3.2 -4.5 -1.6 -6.3 -0.1 -6.2C1.4 -6.2 2.9 -4.3 4 -2.4Z" fill="#333645"></path></g><g transform="translate(350 704)"><path d="M6.8 -3.9C8.5 -1 9.4 2.5 8.1 4.5C6.8 6.4 3.4 7 -0.1 7.1C-3.7 7.2 -7.4 6.8 -9.2 4.5C-11 2.2 -11 -2.1 -9.2 -5.1C-7.3 -8.2 -3.7 -10.1 -0.6 -9.8C2.5 -9.4 5.1 -6.9 6.8 -3.9Z" fill="#333645"></path></g><g transform="translate(859 564)"><path d="M6.3 -3.2C8 -0.7 9.1 2.6 8 5.2C6.8 7.8 3.4 9.6 -0.3 9.8C-4 10 -7.9 8.4 -9.1 5.8C-10.2 3.2 -8.6 -0.4 -6.6 -3C-4.6 -5.7 -2.3 -7.4 0 -7.4C2.3 -7.4 4.6 -5.7 6.3 -3.2Z" fill="#333645"></path></g><g transform="translate(658 549)"><path d="M5.9 -3.4C7.2 -1.1 7.7 1.8 6.5 3.8C5.4 5.8 2.7 6.9 0.3 6.7C-2 6.5 -4 5 -4.9 3.2C-5.7 1.4 -5.4 -0.8 -4.3 -2.9C-3.3 -5.1 -1.7 -7.3 0.3 -7.5C2.3 -7.7 4.5 -5.8 5.9 -3.4Z" fill="#333645"></path></g><g transform="translate(246 506)"><path d="M6.9 -3.8C8.6 -1.1 9.2 2.3 7.9 5C6.6 7.7 3.3 9.8 0 9.8C-3.2 9.8 -6.5 7.7 -7.9 4.9C-9.3 2.1 -8.8 -1.4 -7.2 -4C-5.6 -6.6 -2.8 -8.4 -0.1 -8.3C2.6 -8.3 5.3 -6.4 6.9 -3.8Z" fill="#333645"></path></g><g transform="translate(881 39)"><path d="M6.7 -3.5C8.1 -1.5 8.2 1.7 6.9 3.5C5.5 5.2 2.8 5.7 -0.1 5.7C-3 5.8 -5.9 5.4 -7.5 3.5C-9 1.6 -9.1 -1.9 -7.7 -4C-6.2 -6.1 -3.1 -6.9 -0.2 -6.8C2.7 -6.7 5.3 -5.6 6.7 -3.5Z" fill="#333645"></path></g><g transform="translate(348 310)"><path d="M8.1 -4.4C9.5 -2.1 9.1 1.5 7.5 3.9C5.8 6.2 2.9 7.4 0.5 7.1C-2 6.9 -4 5.2 -5.5 2.9C-7 0.6 -8.1 -2.3 -7.1 -4.3C-6 -6.3 -3 -7.3 0.1 -7.4C3.3 -7.5 6.6 -6.6 8.1 -4.4Z" fill="#333645"></path></g><g transform="translate(833 27)"><path d="M7.3 -4.7C8.3 -2.4 7.2 0.6 5.7 2.6C4.1 4.7 2 5.9 -0.3 6C-2.7 6.2 -5.3 5.4 -7 3.3C-8.6 1.2 -9.3 -2.3 -7.9 -4.7C-6.6 -7.2 -3.3 -8.6 -0.1 -8.5C3.1 -8.5 6.3 -7 7.3 -4.7Z" fill="#333645"></path></g><g transform="translate(769 722)"><path d="M7.2 -4.8C8.4 -2.1 7.8 1 6.3 4.2C4.8 7.4 2.4 10.7 0.1 10.6C-2.2 10.6 -4.4 7.2 -6.5 3.6C-8.6 0.1 -10.6 -3.6 -9.6 -6.3C-8.5 -9 -4.2 -10.6 -0.6 -10.3C3 -9.9 6 -7.6 7.2 -4.8Z" fill="#333645"></path></g><g transform="translate(273 848)"><path d="M7.5 -4C8.8 -2.1 8.2 1.1 6.6 3.5C5.1 5.9 2.5 7.5 0.1 7.4C-2.2 7.3 -4.5 5.6 -5.8 3.3C-7.1 1.1 -7.5 -1.7 -6.4 -3.5C-5.3 -5.3 -2.6 -6 0.2 -6.1C3.1 -6.3 6.2 -5.8 7.5 -4Z" fill="#333645"></path></g><g transform="translate(601 691)"><path d="M4.6 -2.5C5.5 -1.1 5.5 1 4.6 2.8C3.6 4.5 1.8 5.8 -0.2 5.9C-2.2 6 -4.3 4.9 -5.4 3.1C-6.5 1.3 -6.4 -1.2 -5.4 -2.8C-4.3 -4.3 -2.1 -4.9 -0.2 -4.8C1.8 -4.7 3.7 -4 4.6 -2.5Z" fill="#333645"></path></g><g transform="translate(77 301)"><path d="M5.8 -3.2C6.9 -1.5 6.8 1.2 5.6 3.2C4.4 5.2 2.2 6.5 0.3 6.4C-1.6 6.2 -3.3 4.5 -4.1 2.7C-5 0.9 -5 -1 -4.2 -2.6C-3.4 -4.1 -1.7 -5.3 0.3 -5.5C2.4 -5.7 4.7 -4.9 5.8 -3.2Z" fill="#333645"></path></g></g></svg>