<svg id="visual" viewBox="0 0 960 200" width="960" height="200" xmlns="http://www.w3.org/2000/svg" xmlns:xlink="http://www.w3.org/1999/xlink" version="1.1"><rect x="0" y="0" width="960" height="200" fill="#282a36"></rect><path d="M0 80L11.5 66.7C23 53.3 46 26.7 68.8 26C91.7 25.3 114.3 50.7 137.2 67.8C160 85 183 94 205.8 98.3C228.7 102.7 251.3 102.3 274.2 88.3C297 74.3 320 46.7 342.8 47C365.7 47.3 388.3 75.7 411.2 90.2C434 104.7 457 105.3 480 97.8C503 90.3 526 74.7 548.8 68.2C571.7 61.7 594.3 64.3 617.2 72.7C640 81 663 95 685.8 84C708.7 73 731.3 37 754.2 30.8C777 24.7 800 48.3 822.8 50.8C845.7 53.3 868.3 34.7 891.2 34.2C914 33.7 937 51.3 948.5 60.2L960 69L960 201L948.5 201C937 201 914 201 891.2 201C868.3 201 845.7 201 822.8 201C800 201 777 201 754.2 201C731.3 201 708.7 201 685.8 201C663 201 640 201 617.2 201C594.3 201 571.7 201 548.8 201C526 201 503 201 480 201C457 201 434 201 411.2 201C388.3 201 365.7 201 342.8 201C320 201 297 201 274.2 201C251.3 201 228.7 201 205.8 201C183 201 160 201 137.2 201C114.3 201 91.7 201 68.8 201C46 201 23 201 11.5 201L0 201Z" fill="#44475a"></path><path d="M0 101L11.5 97.2C23 93.3 46 85.7 68.8 76.8C91.7 68 114.3 58 137.2 62.5C160 67 183 86 205.8 84.8C228.7 83.7 251.3 62.3 274.2 64.7C297 67 320 93 342.8 106.8C365.7 120.7 388.3 122.3 411.2 114C434 105.7 457 87.3 480 80.8C503 74.3 526 79.7 548.8 88.3C571.7 97 594.3 109 617.2 112C640 115 663 109 685.8 96.2C708.7 83.3 731.3 63.7 754.2 57.2C777 50.7 800 57.3 822.8 56.8C845.7 56.3 868.3 48.7 891.2 58C914 67.3 937 93.7 948.5 106.8L960 120L960 201L948.5 201C937 201 914 201 891.2 201C868.3 201 845.7 201 822.8 201C800 201 777 201 754.2 201C731.3 201 708.7 201 685.8 201C663 201 640 201 617.2 201C594.3 201 571.7 201 548.8 201C526 201 503 201 480 201C457 201 434 201 411.2 201C388.3 201 365.7 201 342.8 201C320 201 297 201 274.2 201C251.3 201 228.7 201 205.8 201C183 201 160 201 137.2 201C114.3 201 91.7 201 68.8 201C46 201 23 201 11.5 201L0 201Z" fill="#3e4153"></path><path d="M0 133L11.5 132.7C23 132.3 46 131.7 68.8 120.5C91.7 109.3 114.3 87.7 137.2 85.8C160 84 183 102 205.8 107.3C228.7 112.7 251.3 105.3 274.2 108C297 110.7 320 123.3 342.8 127C365.7 130.7 388.3 125.3 411.2 120.2C434 115 457 110 480 101.2C503 92.3 526 79.7 548.8 73.8C571.7 68 594.3 69 617.2 78.3C640 87.7 663 105.3 685.8 109C708.7 112.7 731.3 102.3 754.2 101.2C777 100 800 108 822.8 115.8C845.7 123.7 868.3 131.3 891.2 124.7C914 118 937 97 948.5 86.5L960 76L960 201L948.5 201C937 201 914 201 891.2 201C868.3 201 845.7 201 822.8 201C800 201 777 201 754.2 201C731.3 201 708.7 201 685.8 201C663 201 640 201 617.2 201C594.3 201 571.7 201 548.8 201C526 201 503 201 480 201C457 201 434 201 411.2 201C388.3 201 365.7 201 342.8 201C320 201 297 201 274.2 201C251.3 201 228.7 201 205.8 201C183 201 160 201 137.2 201C114.3 201 91.7 201 68.8 201C46 201 23 201 11.5 201L0 201Z" fill="#393b4c"></path><path d="M0 114L11.5 121.7C23 129.3 46 144.7 68.8 151.5C91.7 158.3 114.3 156.7 137.2 154.7C160 152.7 183 150.3 205.8 140.2C228.7 130 251.3 112 274.2 102.5C297 93 320 92 342.8 95.2C365.7 98.3 388.3 105.7 411.2 113.2C434 120.7 457 128.3 480 124.5C503 120.7 526 105.3 548.8 98.2C571.7 91 594.3 92 617.2 101.8C640 111.7 663 130.3 685.8 136C708.7 141.7 731.3 134.3 754.2 129.8C777 125.3 800 123.7 822.8 122.5C845.7 121.3 868.3 120.7 891.2 116.5C914 112.3 937 104.7 948.5 100.8L960 97L960 201L948.5 201C937 201 914 201 891.2 201C868.3 201 845.7 201 822.8 201C800 201 777 201 754.2 201C731.3 201 708.7 201 685.8 201C663 201 640 201 617.2 201C594.3 201 571.7 201 548.8 201C526 201 503 201 480 201C457 201 434 201 411.2 201C388.3 201 365.7 201 342.8 201C320 201 297 201 274.2 201C251.3 201 228.7 201 205.8 201C183 201 160 201 137.2 201C114.3 201 91.7 201 68.8 201C46 201 23 201 11.5 201L0 201Z" fill="#333544"></path><path d="M0 120L11.5 127.3C23 134.7 46 149.3 68.8 159.3C91.7 169.3 114.3 174.7 137.2 166.3C160 158 183 136 205.8 125.7C228.7 115.3 251.3 116.7 274.2 118.5C297 120.3 320 122.7 342.8 124.5C365.7 126.3 388.3 127.7 411.2 133.5C434 139.3 457 149.7 480 153.3C503 157 526 154 548.8 154.5C571.7 155 594.3 159 617.2 159.2C640 159.3 663 155.7 685.8 148.7C708.7 141.7 731.3 131.3 754.2 131.5C777 131.7 800 142.3 822.8 142C845.7 141.7 868.3 130.3 891.2 127.3C914 124.3 937 129.7 948.5 132.3L960 135L960 201L948.5 201C937 201 914 201 891.2 201C868.3 201 845.7 201 822.8 201C800 201 777 201 754.2 201C731.3 201 708.7 201 685.8 201C663 201 640 201 617.2 201C594.3 201 571.7 201 548.8 201C526 201 503 201 480 201C457 201 434 201 411.2 201C388.3 201 365.7 201 342.8 201C320 201 297 201 274.2 201C251.3 201 228.7 201 205.8 201C183 201 160 201 137.2 201C114.3 201 91.7 201 68.8 201C46 201 23 201 11.5 201L0 201Z" fill="#2d303d"></path><path d="M0 196L11.5 195.7C23 195.3 46 194.7 68.8 192.2C91.7 189.7 114.3 185.3 137.2 182C160 178.7 183 176.3 205.8 178.2C228.7 180 251.3 186 274.2 185.2C297 184.3 320 176.7 342.8 172.7C365.7 168.7 388.3 168.3 411.2 166.2C434 164 457 160 480 163.5C503 167 526 178 548.8 183.7C571.7 189.3 594.3 189.7 617.2 190.2C640 190.7 663 191.3 685.8 187.2C708.7 183 731.3 174 754.2 172.8C777 171.7 800 178.3 822.8 180.8C845.7 183.3 868.3 181.7 891.2 181.5C914 181.3 937 182.7 948.5 183.3L960 184L960 201L948.5 201C937 201 914 201 891.2 201C868.3 201 845.7 201 822.8 201C800 201 777 201 754.2 201C731.3 201 708.7 201 685.8 201C663 201 640 201 617.2 201C594.3 201 571.7 201 548.8 201C526 201 503 201 480 201C457 201 434 201 411.2 201C388.3 201 365.7 201 342.8 201C320 201 297 201 274.2 201C251.3 201 228.7 201 205.8 201C183 201 160 201 137.2 201C114.3 201 91.7 201 68.8 201C46 201 23 201 11.5 201L0 201Z" fill="#282a36"></path></svg>