<svg id="visual" viewBox="0 0 960 100" width="960" height="100" xmlns="http://www.w3.org/2000/svg" xmlns:xlink="http://www.w3.org/1999/xlink" version="1.1"><rect x="0" y="0" width="960" height="100" fill="#44475a"></rect><path d="M0 81L13.3 82.2C26.7 83.3 53.3 85.7 80 83.3C106.7 81 133.3 74 160 73.7C186.7 73.3 213.3 79.7 240 77.8C266.7 76 293.3 66 320 61.7C346.7 57.3 373.3 58.7 400 60.7C426.7 62.7 453.3 65.3 480 67.7C506.7 70 533.3 72 560 77C586.7 82 613.3 90 640 89.8C666.7 89.7 693.3 81.3 720 75C746.7 68.7 773.3 64.3 800 64C826.7 63.7 853.3 67.3 880 72.5C906.7 77.7 933.3 84.3 946.7 87.7L960 91L960 0L946.7 0C933.3 0 906.7 0 880 0C853.3 0 826.7 0 800 0C773.3 0 746.7 0 720 0C693.3 0 666.7 0 640 0C613.3 0 586.7 0 560 0C533.3 0 506.7 0 480 0C453.3 0 426.7 0 400 0C373.3 0 346.7 0 320 0C293.3 0 266.7 0 240 0C213.3 0 186.7 0 160 0C133.3 0 106.7 0 80 0C53.3 0 26.7 0 13.3 0L0 0Z" fill="#44475a"></path><path d="M0 48L13.3 48C26.7 48 53.3 48 80 53.5C106.7 59 133.3 70 160 72.3C186.7 74.7 213.3 68.3 240 65.2C266.7 62 293.3 62 320 60C346.7 58 373.3 54 400 54.8C426.7 55.7 453.3 61.3 480 65.7C506.7 70 533.3 73 560 74.2C586.7 75.3 613.3 74.7 640 76.5C666.7 78.3 693.3 82.7 720 84.3C746.7 86 773.3 85 800 82.8C826.7 80.7 853.3 77.3 880 74C906.7 70.7 933.3 67.3 946.7 65.7L960 64L960 0L946.7 0C933.3 0 906.7 0 880 0C853.3 0 826.7 0 800 0C773.3 0 746.7 0 720 0C693.3 0 666.7 0 640 0C613.3 0 586.7 0 560 0C533.3 0 506.7 0 480 0C453.3 0 426.7 0 400 0C373.3 0 346.7 0 320 0C293.3 0 266.7 0 240 0C213.3 0 186.7 0 160 0C133.3 0 106.7 0 80 0C53.3 0 26.7 0 13.3 0L0 0Z" fill="#404355"></path><path d="M0 62L13.3 62.5C26.7 63 53.3 64 80 61C106.7 58 133.3 51 160 46.8C186.7 42.7 213.3 41.3 240 41.8C266.7 42.3 293.3 44.7 320 50.2C346.7 55.7 373.3 64.3 400 63.7C426.7 63 453.3 53 480 48.7C506.7 44.3 533.3 45.7 560 48C586.7 50.3 613.3 53.7 640 58C666.7 62.3 693.3 67.7 720 67C746.7 66.3 773.3 59.7 800 54.8C826.7 50 853.3 47 880 48.7C906.7 50.3 933.3 56.7 946.7 59.8L960 63L960 0L946.7 0C933.3 0 906.7 0 880 0C853.3 0 826.7 0 800 0C773.3 0 746.7 0 720 0C693.3 0 666.7 0 640 0C613.3 0 586.7 0 560 0C533.3 0 506.7 0 480 0C453.3 0 426.7 0 400 0C373.3 0 346.7 0 320 0C293.3 0 266.7 0 240 0C213.3 0 186.7 0 160 0C133.3 0 106.7 0 80 0C53.3 0 26.7 0 13.3 0L0 0Z" fill="#3c3e50"></path><path d="M0 50L13.3 48.3C26.7 46.7 53.3 43.3 80 42.7C106.7 42 133.3 44 160 43C186.7 42 213.3 38 240 35.5C266.7 33 293.3 32 320 33.3C346.7 34.7 373.3 38.3 400 42.2C426.7 46 453.3 50 480 53.2C506.7 56.3 533.3 58.7 560 60C586.7 61.3 613.3 61.7 640 57.2C666.7 52.7 693.3 43.3 720 38.3C746.7 33.3 773.3 32.7 800 32.8C826.7 33 853.3 34 880 34.2C906.7 34.3 933.3 33.7 946.7 33.3L960 33L960 0L946.7 0C933.3 0 906.7 0 880 0C853.3 0 826.7 0 800 0C773.3 0 746.7 0 720 0C693.3 0 666.7 0 640 0C613.3 0 586.7 0 560 0C533.3 0 506.7 0 480 0C453.3 0 426.7 0 400 0C373.3 0 346.7 0 320 0C293.3 0 266.7 0 240 0C213.3 0 186.7 0 160 0C133.3 0 106.7 0 80 0C53.3 0 26.7 0 13.3 0L0 0Z" fill="#383a4b"></path><path d="M0 42L13.3 43.2C26.7 44.3 53.3 46.7 80 48.2C106.7 49.7 133.3 50.3 160 46.2C186.7 42 213.3 33 240 28.3C266.7 23.7 293.3 23.3 320 24.2C346.7 25 373.3 27 400 27C426.7 27 453.3 25 480 27.5C506.7 30 533.3 37 560 40C586.7 43 613.3 42 640 40.3C666.7 38.7 693.3 36.3 720 38C746.7 39.7 773.3 45.3 800 46.2C826.7 47 853.3 43 880 38.3C906.7 33.7 933.3 28.3 946.7 25.7L960 23L960 0L946.7 0C933.3 0 906.7 0 880 0C853.3 0 826.7 0 800 0C773.3 0 746.7 0 720 0C693.3 0 666.7 0 640 0C613.3 0 586.7 0 560 0C533.3 0 506.7 0 480 0C453.3 0 426.7 0 400 0C373.3 0 346.7 0 320 0C293.3 0 266.7 0 240 0C213.3 0 186.7 0 160 0C133.3 0 106.7 0 80 0C53.3 0 26.7 0 13.3 0L0 0Z" fill="#343645"></path><path d="M0 22L13.3 24.2C26.7 26.3 53.3 30.7 80 31.2C106.7 31.7 133.3 28.3 160 26.8C186.7 25.3 213.3 25.7 240 27.5C266.7 29.3 293.3 32.7 320 35.3C346.7 38 373.3 40 400 37.3C426.7 34.7 453.3 27.3 480 26.7C506.7 26 533.3 32 560 31.7C586.7 31.3 613.3 24.7 640 21.3C666.7 18 693.3 18 720 21.7C746.7 25.3 773.3 32.7 800 36.7C826.7 40.7 853.3 41.3 880 41.5C906.7 41.7 933.3 41.3 946.7 41.2L960 41L960 0L946.7 0C933.3 0 906.7 0 880 0C853.3 0 826.7 0 800 0C773.3 0 746.7 0 720 0C693.3 0 666.7 0 640 0C613.3 0 586.7 0 560 0C533.3 0 506.7 0 480 0C453.3 0 426.7 0 400 0C373.3 0 346.7 0 320 0C293.3 0 266.7 0 240 0C213.3 0 186.7 0 160 0C133.3 0 106.7 0 80 0C53.3 0 26.7 0 13.3 0L0 0Z" fill="#303240"></path><path d="M0 12L13.3 14.3C26.7 16.7 53.3 21.3 80 23.3C106.7 25.3 133.3 24.7 160 25C186.7 25.3 213.3 26.7 240 24.5C266.7 22.3 293.3 16.7 320 15.5C346.7 14.3 373.3 17.7 400 19.2C426.7 20.7 453.3 20.3 480 19.7C506.7 19 533.3 18 560 16C586.7 14 613.3 11 640 10C666.7 9 693.3 10 720 12.2C746.7 14.3 773.3 17.7 800 20.3C826.7 23 853.3 25 880 22.7C906.7 20.3 933.3 13.7 946.7 10.3L960 7L960 0L946.7 0C933.3 0 906.7 0 880 0C853.3 0 826.7 0 800 0C773.3 0 746.7 0 720 0C693.3 0 666.7 0 640 0C613.3 0 586.7 0 560 0C533.3 0 506.7 0 480 0C453.3 0 426.7 0 400 0C373.3 0 346.7 0 320 0C293.3 0 266.7 0 240 0C213.3 0 186.7 0 160 0C133.3 0 106.7 0 80 0C53.3 0 26.7 0 13.3 0L0 0Z" fill="#2c2e3b"></path><path d="M0 6L13.3 7.7C26.7 9.3 53.3 12.7 80 13.7C106.7 14.7 133.3 13.3 160 11.7C186.7 10 213.3 8 240 6.5C266.7 5 293.3 4 320 6.2C346.7 8.3 373.3 13.7 400 13.5C426.7 13.3 453.3 7.7 480 7.7C506.7 7.7 533.3 13.3 560 15.8C586.7 18.3 613.3 17.7 640 18C666.7 18.3 693.3 19.7 720 19.5C746.7 19.3 773.3 17.7 800 14.8C826.7 12 853.3 8 880 7.5C906.7 7 933.3 10 946.7 11.5L960 13L960 0L946.7 0C933.3 0 906.7 0 880 0C853.3 0 826.7 0 800 0C773.3 0 746.7 0 720 0C693.3 0 666.7 0 640 0C613.3 0 586.7 0 560 0C533.3 0 506.7 0 480 0C453.3 0 426.7 0 400 0C373.3 0 346.7 0 320 0C293.3 0 266.7 0 240 0C213.3 0 186.7 0 160 0C133.3 0 106.7 0 80 0C53.3 0 26.7 0 13.3 0L0 0Z" fill="#282a36"></path></svg>